<svg class="rich-terminal" viewBox="0 0 994 635.5999999999999" xmlns="http://www.w3.org/2000/svg">
    <!-- Generated with Rich https://www.textualize.io -->
    <style>

    @font-face {
        font-family: "Fira Code";
        src: local("FiraCode-Regular"),
                url("https://cdnjs.cloudflare.com/ajax/libs/firacode/6.2.0/woff2/FiraCode-Regular.woff2") format("woff2"),
                url("https://cdnjs.cloudflare.com/ajax/libs/firacode/6.2.0/woff/FiraCode-Regular.woff") format("woff");
        font-style: normal;
        font-weight: 400;
    }
    @font-face {
        font-family: "Fira Code";
        src: local("FiraCode-Bold"),
                url("https://cdnjs.cloudflare.com/ajax/libs/firacode/6.2.0/woff2/FiraCode-Bold.woff2") format("woff2"),
                url("https://cdnjs.cloudflare.com/ajax/libs/firacode/6.2.0/woff/FiraCode-Bold.woff") format("woff");
        font-style: bold;
        font-weight: 700;
    }

    .terminal-1384275520-matrix {
        font-family: Fira Code, monospace;
        font-size: 20px;
        line-height: 24.4px;
        font-variant-east-asian: full-width;
    }

    .terminal-1384275520-title {
        font-size: 18px;
        font-weight: bold;
        font-family: arial;
    }

    .terminal-1384275520-r1 { fill: #c5c8c6 }
.terminal-1384275520-r2 { fill: #c678dd }
.terminal-1384275520-r3 { fill: #7ae998 }
.terminal-1384275520-r4 { fill: #55c076;font-weight: bold }
.terminal-1384275520-r5 { fill: #008139 }
.terminal-1384275520-r6 { fill: #2d2d2d }
.terminal-1384275520-r7 { fill: #e0e0e0;font-weight: bold }
.terminal-1384275520-r8 { fill: #0d0d0d }
.terminal-1384275520-r9 { fill: #e76580 }
.terminal-1384275520-r10 { fill: #f5e5e9;font-weight: bold }
.terminal-1384275520-r11 { fill: #780028 }
.terminal-1384275520-r12 { fill: #0178d4 }
    </style>

    <defs>
    <clipPath id="terminal-1384275520-clip-terminal">
      <rect x="0" y="0" width="975.0" height="584.5999999999999" />
    </clipPath>
    <clipPath id="terminal-1384275520-line-0">
    <rect x="0" y="1.5" width="976" height="24.65"/>
            </clipPath>
<clipPath id="terminal-1384275520-line-1">
    <rect x="0" y="25.9" width="976" height="24.65"/>
            </clipPath>
<clipPath id="terminal-1384275520-line-2">
    <rect x="0" y="50.3" width="976" height="24.65"/>
            </clipPath>
<clipPath id="terminal-1384275520-line-3">
    <rect x="0" y="74.7" width="976" height="24.65"/>
            </clipPath>
<clipPath id="terminal-1384275520-line-4">
    <rect x="0" y="99.1" width="976" height="24.65"/>
            </clipPath>
<clipPath id="terminal-1384275520-line-5">
    <rect x="0" y="123.5" width="976" height="24.65"/>
            </clipPath>
<clipPath id="terminal-1384275520-line-6">
    <rect x="0" y="147.9" width="976" height="24.65"/>
            </clipPath>
<clipPath id="terminal-1384275520-line-7">
    <rect x="0" y="172.3" width="976" height="24.65"/>
            </clipPath>
<clipPath id="terminal-1384275520-line-8">
    <rect x="0" y="196.7" width="976" height="24.65"/>
            </clipPath>
<clipPath id="terminal-1384275520-line-9">
    <rect x="0" y="221.1" width="976" height="24.65"/>
            </clipPath>
<clipPath id="terminal-1384275520-line-10">
    <rect x="0" y="245.5" width="976" height="24.65"/>
            </clipPath>
<clipPath id="terminal-1384275520-line-11">
    <rect x="0" y="269.9" width="976" height="24.65"/>
            </clipPath>
<clipPath id="terminal-1384275520-line-12">
    <rect x="0" y="294.3" width="976" height="24.65"/>
            </clipPath>
<clipPath id="terminal-1384275520-line-13">
    <rect x="0" y="318.7" width="976" height="24.65"/>
            </clipPath>
<clipPath id="terminal-1384275520-line-14">
    <rect x="0" y="343.1" width="976" height="24.65"/>
            </clipPath>
<clipPath id="terminal-1384275520-line-15">
    <rect x="0" y="367.5" width="976" height="24.65"/>
            </clipPath>
<clipPath id="terminal-1384275520-line-16">
    <rect x="0" y="391.9" width="976" height="24.65"/>
            </clipPath>
<clipPath id="terminal-1384275520-line-17">
    <rect x="0" y="416.3" width="976" height="24.65"/>
            </clipPath>
<clipPath id="terminal-1384275520-line-18">
    <rect x="0" y="440.7" width="976" height="24.65"/>
            </clipPath>
<clipPath id="terminal-1384275520-line-19">
    <rect x="0" y="465.1" width="976" height="24.65"/>
            </clipPath>
<clipPath id="terminal-1384275520-line-20">
    <rect x="0" y="489.5" width="976" height="24.65"/>
            </clipPath>
<clipPath id="terminal-1384275520-line-21">
    <rect x="0" y="513.9" width="976" height="24.65"/>
            </clipPath>
<clipPath id="terminal-1384275520-line-22">
    <rect x="0" y="538.3" width="976" height="24.65"/>
            </clipPath>
    </defs>

    <rect fill="#292929" stroke="rgba(255,255,255,0.35)" stroke-width="1" x="1" y="1" width="992" height="633.6" rx="8"/><text class="terminal-1384275520-title" fill="#c5c8c6" text-anchor="middle" x="496" y="27">Sudoku&#160;—&#160;ESIEE-IT</text>
            <g transform="translate(26,22)">
            <circle cx="0" cy="0" r="7" fill="#ff5f57"/>
            <circle cx="22" cy="0" r="7" fill="#febc2e"/>
            <circle cx="44" cy="0" r="7" fill="#28c840"/>
            </g>
        
    <g transform="translate(9, 41)" clip-path="url(#terminal-1384275520-clip-terminal)">
    <rect fill="#121212" x="0" y="1.5" width="134.2" height="24.65" shape-rendering="crispEdges"/><rect fill="#242f38" x="134.2" y="1.5" width="12.2" height="24.65" shape-rendering="crispEdges"/><rect fill="#242f38" x="146.4" y="1.5" width="683.2" height="24.65" shape-rendering="crispEdges"/><rect fill="#242f38" x="829.6" y="1.5" width="12.2" height="24.65" shape-rendering="crispEdges"/><rect fill="#121212" x="841.8" y="1.5" width="134.2" height="24.65" shape-rendering="crispEdges"/><rect fill="#121212" x="0" y="25.9" width="134.2" height="24.65" shape-rendering="crispEdges"/><rect fill="#242f38" x="134.2" y="25.9" width="12.2" height="24.65" shape-rendering="crispEdges"/><rect fill="#242f38" x="146.4" y="25.9" width="683.2" height="24.65" shape-rendering="crispEdges"/><rect fill="#242f38" x="829.6" y="25.9" width="12.2" height="24.65" shape-rendering="crispEdges"/><rect fill="#121212" x="841.8" y="25.9" width="134.2" height="24.65" shape-rendering="crispEdges"/><rect fill="#121212" x="0" y="50.3" width="134.2" height="24.65" shape-rendering="crispEdges"/><rect fill="#242f38" x="134.2" y="50.3" width="12.2" height="24.65" shape-rendering="crispEdges"/><rect fill="#242f38" x="146.4" y="50.3" width="24.4" height="24.65" shape-rendering="crispEdges"/><rect fill="#242f38" x="170.8" y="50.3" width="634.4" height="24.65" shape-rendering="crispEdges"/><rect fill="#242f38" x="805.2" y="50.3" width="24.4" height="24.65" shape-rendering="crispEdges"/><rect fill="#242f38" x="829.6" y="50.3" width="12.2" height="24.65" shape-rendering="crispEdges"/><rect fill="#121212" x="841.8" y="50.3" width="134.2" height="24.65" shape-rendering="crispEdges"/><rect fill="#121212" x="0" y="74.7" width="134.2" height="24.65" shape-rendering="crispEdges"/><rect fill="#242f38" x="134.2" y="74.7" width="12.2" height="24.65" shape-rendering="crispEdges"/><rect fill="#242f38" x="146.4" y="74.7" width="24.4" height="24.65" shape-rendering="crispEdges"/><rect fill="#242f38" x="170.8" y="74.7" width="634.4" height="24.65" shape-rendering="crispEdges"/><rect fill="#242f38" x="805.2" y="74.7" width="24.4" height="24.65" shape-rendering="crispEdges"/><rect fill="#242f38" x="829.6" y="74.7" width="12.2" height="24.65" shape-rendering="crispEdges"/><rect fill="#121212" x="841.8" y="74.7" width="134.2" height="24.65" shape-rendering="crispEdges"/><rect fill="#121212" x="0" y="99.1" width="134.2" height="24.65" shape-rendering="crispEdges"/><rect fill="#242f38" x="134.2" y="99.1" width="12.2" height="24.65" shape-rendering="crispEdges"/><rect fill="#242f38" x="146.4" y="99.1" width="24.4" height="24.65" shape-rendering="crispEdges"/><rect fill="#242f38" x="170.8" y="99.1" width="634.4" height="24.65" shape-rendering="crispEdges"/><rect fill="#242f38" x="805.2" y="99.1" width="24.4" height="24.65" shape-rendering="crispEdges"/><rect fill="#242f38" x="829.6" y="99.1" width="12.2" height="24.65" shape-rendering="crispEdges"/><rect fill="#121212" x="841.8" y="99.1" width="134.2" height="24.65" shape-rendering="crispEdges"/><rect fill="#121212" x="0" y="123.5" width="134.2" height="24.65" shape-rendering="crispEdges"/><rect fill="#242f38" x="134.2" y="123.5" width="12.2" height="24.65" shape-rendering="crispEdges"/><rect fill="#242f38" x="146.4" y="123.5" width="24.4" height="24.65" shape-rendering="crispEdges"/><rect fill="#242f38" x="170.8" y="123.5" width="634.4" height="24.65" shape-rendering="crispEdges"/><rect fill="#242f38" x="805.2" y="123.5" width="24.4" height="24.65" shape-rendering="crispEdges"/><rect fill="#242f38" x="829.6" y="123.5" width="12.2" height="24.65" shape-rendering="crispEdges"/><rect fill="#121212" x="841.8" y="123.5" width="134.2" height="24.65" shape-rendering="crispEdges"/><rect fill="#121212" x="0" y="147.9" width="134.2" height="24.65" shape-rendering="crispEdges"/><rect fill="#242f38" x="134.2" y="147.9" width="12.2" height="24.65" shape-rendering="crispEdges"/><rect fill="#242f38" x="146.4" y="147.9" width="24.4" height="24.65" shape-rendering="crispEdges"/><rect fill="#242f38" x="170.8" y="147.9" width="634.4" height="24.65" shape-rendering="crispEdges"/><rect fill="#242f38" x="805.2" y="147.9" width="24.4" height="24.65" shape-rendering="crispEdges"/><rect fill="#242f38" x="829.6" y="147.9" width="12.2" height="24.65" shape-rendering="crispEdges"/><rect fill="#121212" x="841.8" y="147.9" width="134.2" height="24.65" shape-rendering="crispEdges"/><rect fill="#121212" x="0" y="172.3" width="134.2" height="24.65" shape-rendering="crispEdges"/><rect fill="#242f38" x="134.2" y="172.3" width="12.2" height="24.65" shape-rendering="crispEdges"/><rect fill="#242f38" x="146.4" y="172.3" width="24.4" height="24.65" shape-rendering="crispEdges"/><rect fill="#242f38" x="170.8" y="172.3" width="622.2" height="24.65" shape-rendering="crispEdges"/><rect fill="#242f38" x="793" y="172.3" width="12.2" height="24.65" shape-rendering="crispEdges"/><rect fill="#242f38" x="805.2" y="172.3" width="24.4" height="24.65" shape-rendering="crispEdges"/><rect fill="#242f38" x="829.6" y="172.3" width="12.2" height="24.65" shape-rendering="crispEdges"/><rect fill="#121212" x="841.8" y="172.3" width="134.2" height="24.65" shape-rendering="crispEdges"/><rect fill="#121212" x="0" y="196.7" width="134.2" height="24.65" shape-rendering="crispEdges"/><rect fill="#242f38" x="134.2" y="196.7" width="12.2" height="24.65" shape-rendering="crispEdges"/><rect fill="#242f38" x="146.4" y="196.7" width="24.4" height="24.65" shape-rendering="crispEdges"/><rect fill="#242f38" x="170.8" y="196.7" width="634.4" height="24.65" shape-rendering="crispEdges"/><rect fill="#242f38" x="805.2" y="196.7" width="24.4" height="24.65" shape-rendering="crispEdges"/><rect fill="#242f38" x="829.6" y="196.7" width="12.2" height="24.65" shape-rendering="crispEdges"/><rect fill="#121212" x="841.8" y="196.7" width="134.2" height="24.65" shape-rendering="crispEdges"/><rect fill="#121212" x="0" y="221.1" width="134.2" height="24.65" shape-rendering="crispEdges"/><rect fill="#242f38" x="134.2" y="221.1" width="12.2" height="24.65" shape-rendering="crispEdges"/><rect fill="#242f38" x="146.4" y="221.1" width="24.4" height="24.65" shape-rendering="crispEdges"/><rect fill="#55c076" x="170.8" y="221.1" width="634.4" height="24.65" shape-rendering="crispEdges"/><rect fill="#242f38" x="805.2" y="221.1" width="24.4" height="24.65" shape-rendering="crispEdges"/><rect fill="#242f38" x="829.6" y="221.1" width="12.2" height="24.65" shape-rendering="crispEdges"/><rect fill="#121212" x="841.8" y="221.1" width="134.2" height="24.65" shape-rendering="crispEdges"/><rect fill="#121212" x="0" y="245.5" width="134.2" height="24.65" shape-rendering="crispEdges"/><rect fill="#242f38" x="134.2" y="245.5" width="12.2" height="24.65" shape-rendering="crispEdges"/><rect fill="#242f38" x="146.4" y="245.5" width="24.4" height="24.65" shape-rendering="crispEdges"/><rect fill="#55c076" x="170.8" y="245.5" width="207.4" height="24.65" shape-rendering="crispEdges"/><rect fill="#0b180f" x="378.2" y="245.5" width="207.4" height="24.65" shape-rendering="crispEdges"/><rect fill="#55c076" x="585.6" y="245.5" width="219.6" height="24.65" shape-rendering="crispEdges"/><rect fill="#242f38" x="805.2" y="245.5" width="24.4" height="24.65" shape-rendering="crispEdges"/><rect fill="#242f38" x="829.6" y="245.5" width="12.2" height="24.65" shape-rendering="crispEdges"/><rect fill="#121212" x="841.8" y="245.5" width="134.2" height="24.65" shape-rendering="crispEdges"/><rect fill="#121212" x="0" y="269.9" width="134.2" height="24.65" shape-rendering="crispEdges"/><rect fill="#242f38" x="134.2" y="269.9" width="12.2" height="24.65" shape-rendering="crispEdges"/><rect fill="#242f38" x="146.4" y="269.9" width="24.4" height="24.65" shape-rendering="crispEdges"/><rect fill="#55c076" x="170.8" y="269.9" width="634.4" height="24.65" shape-rendering="crispEdges"/><rect fill="#242f38" x="805.2" y="269.9" width="24.4" height="24.65" shape-rendering="crispEdges"/><rect fill="#242f38" x="829.6" y="269.9" width="12.2" height="24.65" shape-rendering="crispEdges"/><rect fill="#121212" x="841.8" y="269.9" width="134.2" height="24.65" shape-rendering="crispEdges"/><rect fill="#121212" x="0" y="294.3" width="134.2" height="24.65" shape-rendering="crispEdges"/><rect fill="#242f38" x="134.2" y="294.3" width="12.2" height="24.65" shape-rendering="crispEdges"/><rect fill="#242f38" x="146.4" y="294.3" width="24.4" height="24.65" shape-rendering="crispEdges"/><rect fill="#242f38" x="170.8" y="294.3" width="634.4" height="24.65" shape-rendering="crispEdges"/><rect fill="#242f38" x="805.2" y="294.3" width="24.4" height="24.65" shape-rendering="crispEdges"/><rect fill="#242f38" x="829.6" y="294.3" width="12.2" height="24.65" shape-rendering="crispEdges"/><rect fill="#121212" x="841.8" y="294.3" width="134.2" height="24.65" shape-rendering="crispEdges"/><rect fill="#121212" x="0" y="318.7" width="134.2" height="24.65" shape-rendering="crispEdges"/><rect fill="#242f38" x="134.2" y="318.7" width="12.2" height="24.65" shape-rendering="crispEdges"/><rect fill="#242f38" x="146.4" y="318.7" width="24.4" height="24.65" shape-rendering="crispEdges"/><rect fill="#1e1e1e" x="170.8" y="318.7" width="305" height="24.65" shape-rendering="crispEdges"/><rect fill="#242f38" x="475.8" y="318.7" width="12.2" height="24.65" shape-rendering="crispEdges"/><rect fill="#1e1e1e" x="488" y="318.7" width="317.2" height="24.65" shape-rendering="crispEdges"/><rect fill="#242f38" x="805.2" y="318.7" width="24.4" height="24.65" shape-rendering="crispEdges"/><rect fill="#242f38" x="829.6" y="318.7" width="12.2" height="24.65" shape-rendering="crispEdges"/><rect fill="#121212" x="841.8" y="318.7" width="134.2" height="24.65" shape-rendering="crispEdges"/><rect fill="#121212" x="0" y="343.1" width="134.2" height="24.65" shape-rendering="crispEdges"/><rect fill="#242f38" x="134.2" y="343.1" width="12.2" height="24.65" shape-rendering="crispEdges"/><rect fill="#242f38" x="146.4" y="343.1" width="24.4" height="24.65" shape-rendering="crispEdges"/><rect fill="#1e1e1e" x="170.8" y="343.1" width="97.6" height="24.65" shape-rendering="crispEdges"/><rect fill="#1e1e1e" x="268.4" y="343.1" width="97.6" height="24.65" shape-rendering="crispEdges"/><rect fill="#1e1e1e" x="366" y="343.1" width="109.8" height="24.65" shape-rendering="crispEdges"/><rect fill="#242f38" x="475.8" y="343.1" width="12.2" height="24.65" shape-rendering="crispEdges"/><rect fill="#1e1e1e" x="488" y="343.1" width="109.8" height="24.65" shape-rendering="crispEdges"/><rect fill="#1e1e1e" x="597.8" y="343.1" width="97.6" height="24.65" shape-rendering="crispEdges"/><rect fill="#1e1e1e" x="695.4" y="343.1" width="109.8" height="24.65" shape-rendering="crispEdges"/><rect fill="#242f38" x="805.2" y="343.1" width="24.4" height="24.65" shape-rendering="crispEdges"/><rect fill="#242f38" x="829.6" y="343.1" width="12.2" height="24.65" shape-rendering="crispEdges"/><rect fill="#121212" x="841.8" y="343.1" width="134.2" height="24.65" shape-rendering="crispEdges"/><rect fill="#121212" x="0" y="367.5" width="134.2" height="24.65" shape-rendering="crispEdges"/><rect fill="#242f38" x="134.2" y="367.5" width="12.2" height="24.65" shape-rendering="crispEdges"/><rect fill="#242f38" x="146.4" y="367.5" width="24.4" height="24.65" shape-rendering="crispEdges"/><rect fill="#1e1e1e" x="170.8" y="367.5" width="305" height="24.65" shape-rendering="crispEdges"/><rect fill="#242f38" x="475.8" y="367.5" width="12.2" height="24.65" shape-rendering="crispEdges"/><rect fill="#1e1e1e" x="488" y="367.5" width="317.2" height="24.65" shape-rendering="crispEdges"/><rect fill="#242f38" x="805.2" y="367.5" width="24.4" height="24.65" shape-rendering="crispEdges"/><rect fill="#242f38" x="829.6" y="367.5" width="12.2" height="24.65" shape-rendering="crispEdges"/><rect fill="#121212" x="841.8" y="367.5" width="134.2" height="24.65" shape-rendering="crispEdges"/><rect fill="#121212" x="0" y="391.9" width="134.2" height="24.65" shape-rendering="crispEdges"/><rect fill="#242f38" x="134.2" y="391.9" width="12.2" height="24.65" shape-rendering="crispEdges"/><rect fill="#242f38" x="146.4" y="391.9" width="24.4" height="24.65" shape-rendering="crispEdges"/><rect fill="#242f38" x="170.8" y="391.9" width="634.4" height="24.65" shape-rendering="crispEdges"/><rect fill="#242f38" x="805.2" y="391.9" width="24.4" height="24.65" shape-rendering="crispEdges"/><rect fill="#242f38" x="829.6" y="391.9" width="12.2" height="24.65" shape-rendering="crispEdges"/><rect fill="#121212" x="841.8" y="391.9" width="134.2" height="24.65" shape-rendering="crispEdges"/><rect fill="#121212" x="0" y="416.3" width="134.2" height="24.65" shape-rendering="crispEdges"/><rect fill="#242f38" x="134.2" y="416.3" width="12.2" height="24.65" shape-rendering="crispEdges"/><rect fill="#242f38" x="146.4" y="416.3" width="24.4" height="24.65" shape-rendering="crispEdges"/><rect fill="#1e1e1e" x="170.8" y="416.3" width="305" height="24.65" shape-rendering="crispEdges"/><rect fill="#242f38" x="475.8" y="416.3" width="12.2" height="24.65" shape-rendering="crispEdges"/><rect fill="#b93c5b" x="488" y="416.3" width="317.2" height="24.65" shape-rendering="crispEdges"/><rect fill="#242f38" x="805.2" y="416.3" width="24.4" height="24.65" shape-rendering="crispEdges"/><rect fill="#242f38" x="829.6" y="416.3" width="12.2" height="24.65" shape-rendering="crispEdges"/><rect fill="#121212" x="841.8" y="416.3" width="134.2" height="24.65" shape-rendering="crispEdges"/><rect fill="#121212" x="0" y="440.7" width="134.2" height="24.65" shape-rendering="crispEdges"/><rect fill="#242f38" x="134.2" y="440.7" width="12.2" height="24.65" shape-rendering="crispEdges"/><rect fill="#242f38" x="146.4" y="440.7" width="24.4" height="24.65" shape-rendering="crispEdges"/><rect fill="#1e1e1e" x="170.8" y="440.7" width="97.6" height="24.65" shape-rendering="crispEdges"/><rect fill="#1e1e1e" x="268.4" y="440.7" width="109.8" height="24.65" shape-rendering="crispEdges"/><rect fill="#1e1e1e" x="378.2" y="440.7" width="97.6" height="24.65" shape-rendering="crispEdges"/><rect fill="#242f38" x="475.8" y="440.7" width="12.2" height="24.65" shape-rendering="crispEdges"/><rect fill="#b93c5b" x="488" y="440.7" width="97.6" height="24.65" shape-rendering="crispEdges"/><rect fill="#b93c5b" x="585.6" y="440.7" width="109.8" height="24.65" shape-rendering="crispEdges"/><rect fill="#b93c5b" x="695.4" y="440.7" width="109.8" height="24.65" shape-rendering="crispEdges"/><rect fill="#242f38" x="805.2" y="440.7" width="24.4" height="24.65" shape-rendering="crispEdges"/><rect fill="#242f38" x="829.6" y="440.7" width="12.2" height="24.65" shape-rendering="crispEdges"/><rect fill="#121212" x="841.8" y="440.7" width="134.2" height="24.65" shape-rendering="crispEdges"/><rect fill="#121212" x="0" y="465.1" width="134.2" height="24.65" shape-rendering="crispEdges"/><rect fill="#242f38" x="134.2" y="465.1" width="12.2" height="24.65" shape-rendering="crispEdges"/><rect fill="#242f38" x="146.4" y="465.1" width="24.4" height="24.65" shape-rendering="crispEdges"/><rect fill="#1e1e1e" x="170.8" y="465.1" width="305" height="24.65" shape-rendering="crispEdges"/><rect fill="#242f38" x="475.8" y="465.1" width="12.2" height="24.65" shape-rendering="crispEdges"/><rect fill="#b93c5b" x="488" y="465.1" width="317.2" height="24.65" shape-rendering="crispEdges"/><rect fill="#242f38" x="805.2" y="465.1" width="24.4" height="24.65" shape-rendering="crispEdges"/><rect fill="#242f38" x="829.6" y="465.1" width="12.2" height="24.65" shape-rendering="crispEdges"/><rect fill="#121212" x="841.8" y="465.1" width="134.2" height="24.65" shape-rendering="crispEdges"/><rect fill="#121212" x="0" y="489.5" width="134.2" height="24.65" shape-rendering="crispEdges"/><rect fill="#242f38" x="134.2" y="489.5" width="12.2" height="24.65" shape-rendering="crispEdges"/><rect fill="#242f38" x="146.4" y="489.5" width="24.4" height="24.65" shape-rendering="crispEdges"/><rect fill="#242f38" x="170.8" y="489.5" width="634.4" height="24.65" shape-rendering="crispEdges"/><rect fill="#242f38" x="805.2" y="489.5" width="24.4" height="24.65" shape-rendering="crispEdges"/><rect fill="#242f38" x="829.6" y="489.5" width="12.2" height="24.65" shape-rendering="crispEdges"/><rect fill="#121212" x="841.8" y="489.5" width="134.2" height="24.65" shape-rendering="crispEdges"/><rect fill="#121212" x="0" y="513.9" width="134.2" height="24.65" shape-rendering="crispEdges"/><rect fill="#242f38" x="134.2" y="513.9" width="12.2" height="24.65" shape-rendering="crispEdges"/><rect fill="#242f38" x="146.4" y="513.9" width="683.2" height="24.65" shape-rendering="crispEdges"/><rect fill="#242f38" x="829.6" y="513.9" width="12.2" height="24.65" shape-rendering="crispEdges"/><rect fill="#121212" x="841.8" y="513.9" width="134.2" height="24.65" shape-rendering="crispEdges"/><rect fill="#121212" x="0" y="538.3" width="134.2" height="24.65" shape-rendering="crispEdges"/><rect fill="#242f38" x="134.2" y="538.3" width="12.2" height="24.65" shape-rendering="crispEdges"/><rect fill="#242f38" x="146.4" y="538.3" width="683.2" height="24.65" shape-rendering="crispEdges"/><rect fill="#242f38" x="829.6" y="538.3" width="12.2" height="24.65" shape-rendering="crispEdges"/><rect fill="#121212" x="841.8" y="538.3" width="134.2" height="24.65" shape-rendering="crispEdges"/><rect fill="#242f38" x="0" y="562.7" width="976" height="24.65" shape-rendering="crispEdges"/>
    <g class="terminal-1384275520-matrix">
    <text class="terminal-1384275520-r2" x="134.2" y="20" textLength="12.2" clip-path="url(#terminal-1384275520-line-0)">╔</text><text class="terminal-1384275520-r2" x="146.4" y="20" textLength="683.2" clip-path="url(#terminal-1384275520-line-0)">════════════════════════════════════════════════════════</text><text class="terminal-1384275520-r2" x="829.6" y="20" textLength="12.2" clip-path="url(#terminal-1384275520-line-0)">╗</text><text class="terminal-1384275520-r1" x="976" y="20" textLength="12.2" clip-path="url(#terminal-1384275520-line-0)">
</text><text class="terminal-1384275520-r2" x="134.2" y="44.4" textLength="12.2" clip-path="url(#terminal-1384275520-line-1)">║</text><text class="terminal-1384275520-r2" x="829.6" y="44.4" textLength="12.2" clip-path="url(#terminal-1384275520-line-1)">║</text><text class="terminal-1384275520-r1" x="976" y="44.4" textLength="12.2" clip-path="url(#terminal-1384275520-line-1)">
</text><text class="terminal-1384275520-r2" x="134.2" y="68.8" textLength="12.2" clip-path="url(#terminal-1384275520-line-2)">║</text><text class="terminal-1384275520-r2" x="170.8" y="68.8" textLength="634.4" clip-path="url(#terminal-1384275520-line-2)">&#160;███████╗██╗&#160;&#160;&#160;██╗██████╗&#160;&#160;██████╗&#160;██╗&#160;&#160;██╗██╗&#160;&#160;&#160;██╗</text><text class="terminal-1384275520-r2" x="829.6" y="68.8" textLength="12.2" clip-path="url(#terminal-1384275520-line-2)">║</text><text class="terminal-1384275520-r1" x="976" y="68.8" textLength="12.2" clip-path="url(#terminal-1384275520-line-2)">
</text><text class="terminal-1384275520-r2" x="134.2" y="93.2" textLength="12.2" clip-path="url(#terminal-1384275520-line-3)">║</text><text class="terminal-1384275520-r2" x="170.8" y="93.2" textLength="634.4" clip-path="url(#terminal-1384275520-line-3)">&#160;██╔════╝██║&#160;&#160;&#160;██║██╔══██╗██╔═══██╗██║&#160;██╔╝██║&#160;&#160;&#160;██║</text><text class="terminal-1384275520-r2" x="829.6" y="93.2" textLength="12.2" clip-path="url(#terminal-1384275520-line-3)">║</text><text class="terminal-1384275520-r1" x="976" y="93.2" textLength="12.2" clip-path="url(#terminal-1384275520-line-3)">
</text><text class="terminal-1384275520-r2" x="134.2" y="117.6" textLength="12.2" clip-path="url(#terminal-1384275520-line-4)">║</text><text class="terminal-1384275520-r2" x="170.8" y="117.6" textLength="634.4" clip-path="url(#terminal-1384275520-line-4)">&#160;███████╗██║&#160;&#160;&#160;██║██║&#160;&#160;██║██║&#160;&#160;&#160;██║█████╔╝&#160;██║&#160;&#160;&#160;██║</text><text class="terminal-1384275520-r2" x="829.6" y="117.6" textLength="12.2" clip-path="url(#terminal-1384275520-line-4)">║</text><text class="terminal-1384275520-r1" x="976" y="117.6" textLength="12.2" clip-path="url(#terminal-1384275520-line-4)">
</text><text class="terminal-1384275520-r2" x="134.2" y="142" textLength="12.2" clip-path="url(#terminal-1384275520-line-5)">║</text><text class="terminal-1384275520-r2" x="170.8" y="142" textLength="634.4" clip-path="url(#terminal-1384275520-line-5)">&#160;╚════██║██║&#160;&#160;&#160;██║██║&#160;&#160;██║██║&#160;&#160;&#160;██║██╔═██╗&#160;██║&#160;&#160;&#160;██║</text><text class="terminal-1384275520-r2" x="829.6" y="142" textLength="12.2" clip-path="url(#terminal-1384275520-line-5)">║</text><text class="terminal-1384275520-r1" x="976" y="142" textLength="12.2" clip-path="url(#terminal-1384275520-line-5)">
</text><text class="terminal-1384275520-r2" x="134.2" y="166.4" textLength="12.2" clip-path="url(#terminal-1384275520-line-6)">║</text><text class="terminal-1384275520-r2" x="170.8" y="166.4" textLength="634.4" clip-path="url(#terminal-1384275520-line-6)">&#160;███████║╚██████╔╝██████╔╝╚██████╔╝██║&#160;&#160;██╗╚██████╔╝</text><text class="terminal-1384275520-r2" x="829.6" y="166.4" textLength="12.2" clip-path="url(#terminal-1384275520-line-6)">║</text><text class="terminal-1384275520-r1" x="976" y="166.4" textLength="12.2" clip-path="url(#terminal-1384275520-line-6)">
</text><text class="terminal-1384275520-r2" x="134.2" y="190.8" textLength="12.2" clip-path="url(#terminal-1384275520-line-7)">║</text><text class="terminal-1384275520-r2" x="170.8" y="190.8" textLength="622.2" clip-path="url(#terminal-1384275520-line-7)">&#160;╚══════╝&#160;╚═════╝&#160;╚═════╝&#160;&#160;╚═════╝&#160;╚═╝&#160;&#160;╚═╝&#160;╚═════╝</text><text class="terminal-1384275520-r2" x="829.6" y="190.8" textLength="12.2" clip-path="url(#terminal-1384275520-line-7)">║</text><text class="terminal-1384275520-r1" x="976" y="190.8" textLength="12.2" clip-path="url(#terminal-1384275520-line-7)">
</text><text class="terminal-1384275520-r2" x="134.2" y="215.2" textLength="12.2" clip-path="url(#terminal-1384275520-line-8)">║</text><text class="terminal-1384275520-r2" x="829.6" y="215.2" textLength="12.2" clip-path="url(#terminal-1384275520-line-8)">║</text><text class="terminal-1384275520-r1" x="976" y="215.2" textLength="12.2" clip-path="url(#terminal-1384275520-line-8)">
</text><text class="terminal-1384275520-r2" x="134.2" y="239.6" textLength="12.2" clip-path="url(#terminal-1384275520-line-9)">║</text><text class="terminal-1384275520-r3" x="170.8" y="239.6" textLength="634.4" clip-path="url(#terminal-1384275520-line-9)">▔▔▔▔▔▔▔▔▔▔▔▔▔▔▔▔▔▔▔▔▔▔▔▔▔▔▔▔▔▔▔▔▔▔▔▔▔▔▔▔▔▔▔▔▔▔▔▔▔▔▔▔</text><text class="terminal-1384275520-r2" x="829.6" y="239.6" textLength="12.2" clip-path="url(#terminal-1384275520-line-9)">║</text><text class="terminal-1384275520-r1" x="976" y="239.6" textLength="12.2" clip-path="url(#terminal-1384275520-line-9)">
</text><text class="terminal-1384275520-r2" x="134.2" y="264" textLength="12.2" clip-path="url(#terminal-1384275520-line-10)">║</text><text class="terminal-1384275520-r4" x="378.2" y="264" textLength="207.4" clip-path="url(#terminal-1384275520-line-10)">&#160;Nouvelle&#160;Partie&#160;</text><text class="terminal-1384275520-r2" x="829.6" y="264" textLength="12.2" clip-path="url(#terminal-1384275520-line-10)">║</text><text class="terminal-1384275520-r1" x="976" y="264" textLength="12.2" clip-path="url(#terminal-1384275520-line-10)">
</text><text class="terminal-1384275520-r2" x="134.2" y="288.4" textLength="12.2" clip-path="url(#terminal-1384275520-line-11)">║</text><text class="terminal-1384275520-r5" x="170.8" y="288.4" textLength="634.4" clip-path="url(#terminal-1384275520-line-11)">▁▁▁▁▁▁▁▁▁▁▁▁▁▁▁▁▁▁▁▁▁▁▁▁▁▁▁▁▁▁▁▁▁▁▁▁▁▁▁▁▁▁▁▁▁▁▁▁▁▁▁▁</text><text class="terminal-1384275520-r2" x="829.6" y="288.4" textLength="12.2" clip-path="url(#terminal-1384275520-line-11)">║</text><text class="terminal-1384275520-r1" x="976" y="288.4" textLength="12.2" clip-path="url(#terminal-1384275520-line-11)">
</text><text class="terminal-1384275520-r2" x="134.2" y="312.8" textLength="12.2" clip-path="url(#terminal-1384275520-line-12)">║</text><text class="terminal-1384275520-r2" x="829.6" y="312.8" textLength="12.2" clip-path="url(#terminal-1384275520-line-12)">║</text><text class="terminal-1384275520-r1" x="976" y="312.8" textLength="12.2" clip-path="url(#terminal-1384275520-line-12)">
</text><text class="terminal-1384275520-r2" x="134.2" y="337.2" textLength="12.2" clip-path="url(#terminal-1384275520-line-13)">║</text><text class="terminal-1384275520-r6" x="170.8" y="337.2" textLength="305" clip-path="url(#terminal-1384275520-line-13)">▔▔▔▔▔▔▔▔▔▔▔▔▔▔▔▔▔▔▔▔▔▔▔▔▔</text><text class="terminal-1384275520-r6" x="488" y="337.2" textLength="317.2" clip-path="url(#terminal-1384275520-line-13)">▔▔▔▔▔▔▔▔▔▔▔▔▔▔▔▔▔▔▔▔▔▔▔▔▔▔</text><text class="terminal-1384275520-r2" x="829.6" y="337.2" textLength="12.2" clip-path="url(#terminal-1384275520-line-13)">║</text><text class="terminal-1384275520-r1" x="976" y="337.2" textLength="12.2" clip-path="url(#terminal-1384275520-line-13)">
</text><text class="terminal-1384275520-r2" x="134.2" y="361.6" textLength="12.2" clip-path="url(#terminal-1384275520-line-14)">║</text><text class="terminal-1384275520-r7" x="268.4" y="361.6" textLength="97.6" clip-path="url(#terminal-1384275520-line-14)">&#160;Scores&#160;</text><text class="terminal-1384275520-r7" x="597.8" y="361.6" textLength="97.6" clip-path="url(#terminal-1384275520-line-14)">&#160;Règles&#160;</text><text class="terminal-1384275520-r2" x="829.6" y="361.6" textLength="12.2" clip-path="url(#terminal-1384275520-line-14)">║</text><text class="terminal-1384275520-r1" x="976" y="361.6" textLength="12.2" clip-path="url(#terminal-1384275520-line-14)">
</text><text class="terminal-1384275520-r2" x="134.2" y="386" textLength="12.2" clip-path="url(#terminal-1384275520-line-15)">║</text><text class="terminal-1384275520-r8" x="170.8" y="386" textLength="305" clip-path="url(#terminal-1384275520-line-15)">▁▁▁▁▁▁▁▁▁▁▁▁▁▁▁▁▁▁▁▁▁▁▁▁▁</text><text class="terminal-1384275520-r8" x="488" y="386" textLength="317.2" clip-path="url(#terminal-1384275520-line-15)">▁▁▁▁▁▁▁▁▁▁▁▁▁▁▁▁▁▁▁▁▁▁▁▁▁▁</text><text class="terminal-1384275520-r2" x="829.6" y="386" textLength="12.2" clip-path="url(#terminal-1384275520-line-15)">║</text><text class="terminal-1384275520-r1" x="976" y="386" textLength="12.2" clip-path="url(#terminal-1384275520-line-15)">
</text><text class="terminal-1384275520-r2" x="134.2" y="410.4" textLength="12.2" clip-path="url(#terminal-1384275520-line-16)">║</text><text class="terminal-1384275520-r2" x="829.6" y="410.4" textLength="12.2" clip-path="url(#terminal-1384275520-line-16)">║</text><text class="terminal-1384275520-r1" x="976" y="410.4" textLength="12.2" clip-path="url(#terminal-1384275520-line-16)">
</text><text class="terminal-1384275520-r2" x="134.2" y="434.8" textLength="12.2" clip-path="url(#terminal-1384275520-line-17)">║</text><text class="terminal-1384275520-r6" x="170.8" y="434.8" textLength="305" clip-path="url(#terminal-1384275520-line-17)">▔▔▔▔▔▔▔▔▔▔▔▔▔▔▔▔▔▔▔▔▔▔▔▔▔</text><text class="terminal-1384275520-r9" x="488" y="434.8" textLength="317.2" clip-path="url(#terminal-1384275520-line-17)">▔▔▔▔▔▔▔▔▔▔▔▔▔▔▔▔▔▔▔▔▔▔▔▔▔▔</text><text class="terminal-1384275520-r2" x="829.6" y="434.8" textLength="12.2" clip-path="url(#terminal-1384275520-line-17)">║</text><text class="terminal-1384275520-r1" x="976" y="434.8" textLength="12.2" clip-path="url(#terminal-1384275520-line-17)">
</text><text class="terminal-1384275520-r2" x="134.2" y="459.2" textLength="12.2" clip-path="url(#terminal-1384275520-line-18)">║</text><text class="terminal-1384275520-r7" x="268.4" y="459.2" textLength="109.8" clip-path="url(#terminal-1384275520-line-18)">&#160;Crédits&#160;</text><text class="terminal-1384275520-r10" x="585.6" y="459.2" textLength="109.8" clip-path="url(#terminal-1384275520-line-18)">&#160;Quitter&#160;</text><text class="terminal-1384275520-r2" x="829.6" y="459.2" textLength="12.2" clip-path="url(#terminal-1384275520-line-18)">║</text><text class="terminal-1384275520-r1" x="976" y="459.2" textLength="12.2" clip-path="url(#terminal-1384275520-line-18)">
</text><text class="terminal-1384275520-r2" x="134.2" y="483.6" textLength="12.2" clip-path="url(#terminal-1384275520-line-19)">║</text><text class="terminal-1384275520-r8" x="170.8" y="483.6" textLength="305" clip-path="url(#terminal-1384275520-line-19)">▁▁▁▁▁▁▁▁▁▁▁▁▁▁▁▁▁▁▁▁▁▁▁▁▁</text><text class="terminal-1384275520-r11" x="488" y="483.6" textLength="317.2" clip-path="url(#terminal-1384275520-line-19)">▁▁▁▁▁▁▁▁▁▁▁▁▁▁▁▁▁▁▁▁▁▁▁▁▁▁</text><text class="terminal-1384275520-r2" x="829.6" y="483.6" textLength="12.2" clip-path="url(#terminal-1384275520-line-19)">║</text><text class="terminal-1384275520-r1" x="976" y="483.6" textLength="12.2" clip-path="url(#terminal-1384275520-line-19)">
</text><text class="terminal-1384275520-r2" x="134.2" y="508" textLength="12.2" clip-path="url(#terminal-1384275520-line-20)">║</text><text class="terminal-1384275520-r2" x="829.6" y="508" textLength="12.2" clip-path="url(#terminal-1384275520-line-20)">║</text><text class="terminal-1384275520-r1" x="976" y="508" textLength="12.2" clip-path="url(#terminal-1384275520-line-20)">
</text><text class="terminal-1384275520-r2" x="134.2" y="532.4" textLength="12.2" clip-path="url(#terminal-1384275520-line-21)">║</text><text class="terminal-1384275520-r2" x="829.6" y="532.4" textLength="12.2" clip-path="url(#terminal-1384275520-line-21)">║</text><text class="terminal-1384275520-r1" x="976" y="532.4" textLength="12.2" clip-path="url(#terminal-1384275520-line-21)">
</text><text class="terminal-1384275520-r2" x="134.2" y="556.8" textLength="12.2" clip-path="url(#terminal-1384275520-line-22)">╚</text><text class="terminal-1384275520-r2" x="146.4" y="556.8" textLength="683.2" clip-path="url(#terminal-1384275520-line-22)">════════════════════════════════════════════════════════</text><text class="terminal-1384275520-r2" x="829.6" y="556.8" textLength="12.2" clip-path="url(#terminal-1384275520-line-22)">╝</text><text class="terminal-1384275520-r1" x="976" y="556.8" textLength="12.2" clip-path="url(#terminal-1384275520-line-22)">
</text><text class="terminal-1384275520-r12" x="0" y="581.2" textLength="976" clip-path="url(#terminal-1384275520-line-23)">────────────────────────────────────────────────────────────────────────────────</text>
    </g>
    </g>
</svg>
