<svg class="rich-terminal" viewBox="0 0 994 635.5999999999999" xmlns="http://www.w3.org/2000/svg">
    <!-- Generated with Rich https://www.textualize.io -->
    <style>

    @font-face {
        font-family: "Fira Code";
        src: local("FiraCode-Regular"),
                url("https://cdnjs.cloudflare.com/ajax/libs/firacode/6.2.0/woff2/FiraCode-Regular.woff2") format("woff2"),
                url("https://cdnjs.cloudflare.com/ajax/libs/firacode/6.2.0/woff/FiraCode-Regular.woff") format("woff");
        font-style: normal;
        font-weight: 400;
    }
    @font-face {
        font-family: "Fira Code";
        src: local("FiraCode-Bold"),
                url("https://cdnjs.cloudflare.com/ajax/libs/firacode/6.2.0/woff2/FiraCode-Bold.woff2") format("woff2"),
                url("https://cdnjs.cloudflare.com/ajax/libs/firacode/6.2.0/woff/FiraCode-Bold.woff") format("woff");
        font-style: bold;
        font-weight: 700;
    }

    .terminal-4277881096-matrix {
        font-family: Fira Code, monospace;
        font-size: 20px;
        line-height: 24.4px;
        font-variant-east-asian: full-width;
    }

    .terminal-4277881096-title {
        font-size: 18px;
        font-weight: bold;
        font-family: arial;
    }

    .terminal-4277881096-r1 { fill: #c5c8c6 }
.terminal-4277881096-r2 { fill: #fea62b }
.terminal-4277881096-r3 { fill: #121212 }
.terminal-4277881096-r4 { fill: #a7abaf }
.terminal-4277881096-r5 { fill: #0178d4 }
.terminal-4277881096-r6 { fill: #7ae998 }
.terminal-4277881096-r7 { fill: #55c076;font-weight: bold }
.terminal-4277881096-r8 { fill: #000000 }
.terminal-4277881096-r9 { fill: #008139 }
.terminal-4277881096-r10 { fill: #e0e0e0 }
.terminal-4277881096-r11 { fill: #6db2ff }
.terminal-4277881096-r12 { fill: #ddedf9;font-weight: bold }
.terminal-4277881096-r13 { fill: #004295 }
.terminal-4277881096-r14 { fill: #2d2d2d }
.terminal-4277881096-r15 { fill: #ffa62b;font-weight: bold }
.terminal-4277881096-r16 { fill: #495259 }
    </style>

    <defs>
    <clipPath id="terminal-4277881096-clip-terminal">
      <rect x="0" y="0" width="975.0" height="584.5999999999999" />
    </clipPath>
    <clipPath id="terminal-4277881096-line-0">
    <rect x="0" y="1.5" width="976" height="24.65"/>
            </clipPath>
<clipPath id="terminal-4277881096-line-1">
    <rect x="0" y="25.9" width="976" height="24.65"/>
            </clipPath>
<clipPath id="terminal-4277881096-line-2">
    <rect x="0" y="50.3" width="976" height="24.65"/>
            </clipPath>
<clipPath id="terminal-4277881096-line-3">
    <rect x="0" y="74.7" width="976" height="24.65"/>
            </clipPath>
<clipPath id="terminal-4277881096-line-4">
    <rect x="0" y="99.1" width="976" height="24.65"/>
            </clipPath>
<clipPath id="terminal-4277881096-line-5">
    <rect x="0" y="123.5" width="976" height="24.65"/>
            </clipPath>
<clipPath id="terminal-4277881096-line-6">
    <rect x="0" y="147.9" width="976" height="24.65"/>
            </clipPath>
<clipPath id="terminal-4277881096-line-7">
    <rect x="0" y="172.3" width="976" height="24.65"/>
            </clipPath>
<clipPath id="terminal-4277881096-line-8">
    <rect x="0" y="196.7" width="976" height="24.65"/>
            </clipPath>
<clipPath id="terminal-4277881096-line-9">
    <rect x="0" y="221.1" width="976" height="24.65"/>
            </clipPath>
<clipPath id="terminal-4277881096-line-10">
    <rect x="0" y="245.5" width="976" height="24.65"/>
            </clipPath>
<clipPath id="terminal-4277881096-line-11">
    <rect x="0" y="269.9" width="976" height="24.65"/>
            </clipPath>
<clipPath id="terminal-4277881096-line-12">
    <rect x="0" y="294.3" width="976" height="24.65"/>
            </clipPath>
<clipPath id="terminal-4277881096-line-13">
    <rect x="0" y="318.7" width="976" height="24.65"/>
            </clipPath>
<clipPath id="terminal-4277881096-line-14">
    <rect x="0" y="343.1" width="976" height="24.65"/>
            </clipPath>
<clipPath id="terminal-4277881096-line-15">
    <rect x="0" y="367.5" width="976" height="24.65"/>
            </clipPath>
<clipPath id="terminal-4277881096-line-16">
    <rect x="0" y="391.9" width="976" height="24.65"/>
            </clipPath>
<clipPath id="terminal-4277881096-line-17">
    <rect x="0" y="416.3" width="976" height="24.65"/>
            </clipPath>
<clipPath id="terminal-4277881096-line-18">
    <rect x="0" y="440.7" width="976" height="24.65"/>
            </clipPath>
<clipPath id="terminal-4277881096-line-19">
    <rect x="0" y="465.1" width="976" height="24.65"/>
            </clipPath>
<clipPath id="terminal-4277881096-line-20">
    <rect x="0" y="489.5" width="976" height="24.65"/>
            </clipPath>
<clipPath id="terminal-4277881096-line-21">
    <rect x="0" y="513.9" width="976" height="24.65"/>
            </clipPath>
<clipPath id="terminal-4277881096-line-22">
    <rect x="0" y="538.3" width="976" height="24.65"/>
            </clipPath>
    </defs>

    <rect fill="#292929" stroke="rgba(255,255,255,0.35)" stroke-width="1" x="1" y="1" width="992" height="633.6" rx="8"/><text class="terminal-4277881096-title" fill="#c5c8c6" text-anchor="middle" x="496" y="27">Sudoku&#160;—&#160;ESIEE-IT</text>
            <g transform="translate(26,22)">
            <circle cx="0" cy="0" r="7" fill="#ff5f57"/>
            <circle cx="22" cy="0" r="7" fill="#febc2e"/>
            <circle cx="44" cy="0" r="7" fill="#28c840"/>
            </g>
        
    <g transform="translate(9, 41)" clip-path="url(#terminal-4277881096-clip-terminal)">
    <rect fill="#121212" x="0" y="1.5" width="85.4" height="24.65" shape-rendering="crispEdges"/><rect fill="#242f38" x="85.4" y="1.5" width="12.2" height="24.65" shape-rendering="crispEdges"/><rect fill="#242f38" x="97.6" y="1.5" width="756.4" height="24.65" shape-rendering="crispEdges"/><rect fill="#242f38" x="854" y="1.5" width="12.2" height="24.65" shape-rendering="crispEdges"/><rect fill="#121212" x="866.2" y="1.5" width="85.4" height="24.65" shape-rendering="crispEdges"/><rect fill="#003054" x="951.6" y="1.5" width="24.4" height="24.65" shape-rendering="crispEdges"/><rect fill="#121212" x="0" y="25.9" width="85.4" height="24.65" shape-rendering="crispEdges"/><rect fill="#242f38" x="85.4" y="25.9" width="12.2" height="24.65" shape-rendering="crispEdges"/><rect fill="#242f38" x="97.6" y="25.9" width="756.4" height="24.65" shape-rendering="crispEdges"/><rect fill="#242f38" x="854" y="25.9" width="12.2" height="24.65" shape-rendering="crispEdges"/><rect fill="#121212" x="866.2" y="25.9" width="85.4" height="24.65" shape-rendering="crispEdges"/><rect fill="#003054" x="951.6" y="25.9" width="24.4" height="24.65" shape-rendering="crispEdges"/><rect fill="#121212" x="0" y="50.3" width="85.4" height="24.65" shape-rendering="crispEdges"/><rect fill="#242f38" x="85.4" y="50.3" width="12.2" height="24.65" shape-rendering="crispEdges"/><rect fill="#242f38" x="97.6" y="50.3" width="36.6" height="24.65" shape-rendering="crispEdges"/><rect fill="#242f38" x="134.2" y="50.3" width="24.4" height="24.65" shape-rendering="crispEdges"/><rect fill="#242f38" x="158.6" y="50.3" width="634.4" height="24.65" shape-rendering="crispEdges"/><rect fill="#242f38" x="793" y="50.3" width="24.4" height="24.65" shape-rendering="crispEdges"/><rect fill="#242f38" x="817.4" y="50.3" width="36.6" height="24.65" shape-rendering="crispEdges"/><rect fill="#242f38" x="854" y="50.3" width="12.2" height="24.65" shape-rendering="crispEdges"/><rect fill="#121212" x="866.2" y="50.3" width="85.4" height="24.65" shape-rendering="crispEdges"/><rect fill="#003054" x="951.6" y="50.3" width="24.4" height="24.65" shape-rendering="crispEdges"/><rect fill="#121212" x="0" y="74.7" width="85.4" height="24.65" shape-rendering="crispEdges"/><rect fill="#242f38" x="85.4" y="74.7" width="12.2" height="24.65" shape-rendering="crispEdges"/><rect fill="#242f38" x="97.6" y="74.7" width="36.6" height="24.65" shape-rendering="crispEdges"/><rect fill="#242f38" x="134.2" y="74.7" width="24.4" height="24.65" shape-rendering="crispEdges"/><rect fill="#242f38" x="158.6" y="74.7" width="634.4" height="24.65" shape-rendering="crispEdges"/><rect fill="#242f38" x="793" y="74.7" width="24.4" height="24.65" shape-rendering="crispEdges"/><rect fill="#242f38" x="817.4" y="74.7" width="36.6" height="24.65" shape-rendering="crispEdges"/><rect fill="#242f38" x="854" y="74.7" width="12.2" height="24.65" shape-rendering="crispEdges"/><rect fill="#121212" x="866.2" y="74.7" width="85.4" height="24.65" shape-rendering="crispEdges"/><rect fill="#003054" x="951.6" y="74.7" width="24.4" height="24.65" shape-rendering="crispEdges"/><rect fill="#121212" x="0" y="99.1" width="85.4" height="24.65" shape-rendering="crispEdges"/><rect fill="#242f38" x="85.4" y="99.1" width="12.2" height="24.65" shape-rendering="crispEdges"/><rect fill="#242f38" x="97.6" y="99.1" width="36.6" height="24.65" shape-rendering="crispEdges"/><rect fill="#242f38" x="134.2" y="99.1" width="24.4" height="24.65" shape-rendering="crispEdges"/><rect fill="#242f38" x="158.6" y="99.1" width="634.4" height="24.65" shape-rendering="crispEdges"/><rect fill="#242f38" x="793" y="99.1" width="24.4" height="24.65" shape-rendering="crispEdges"/><rect fill="#242f38" x="817.4" y="99.1" width="36.6" height="24.65" shape-rendering="crispEdges"/><rect fill="#242f38" x="854" y="99.1" width="12.2" height="24.65" shape-rendering="crispEdges"/><rect fill="#121212" x="866.2" y="99.1" width="85.4" height="24.65" shape-rendering="crispEdges"/><rect fill="#003054" x="951.6" y="99.1" width="24.4" height="24.65" shape-rendering="crispEdges"/><rect fill="#121212" x="0" y="123.5" width="85.4" height="24.65" shape-rendering="crispEdges"/><rect fill="#242f38" x="85.4" y="123.5" width="12.2" height="24.65" shape-rendering="crispEdges"/><rect fill="#242f38" x="97.6" y="123.5" width="36.6" height="24.65" shape-rendering="crispEdges"/><rect fill="#242f38" x="134.2" y="123.5" width="24.4" height="24.65" shape-rendering="crispEdges"/><rect fill="#242f38" x="158.6" y="123.5" width="634.4" height="24.65" shape-rendering="crispEdges"/><rect fill="#242f38" x="793" y="123.5" width="24.4" height="24.65" shape-rendering="crispEdges"/><rect fill="#242f38" x="817.4" y="123.5" width="36.6" height="24.65" shape-rendering="crispEdges"/><rect fill="#242f38" x="854" y="123.5" width="12.2" height="24.65" shape-rendering="crispEdges"/><rect fill="#121212" x="866.2" y="123.5" width="85.4" height="24.65" shape-rendering="crispEdges"/><rect fill="#003054" x="951.6" y="123.5" width="24.4" height="24.65" shape-rendering="crispEdges"/><rect fill="#121212" x="0" y="147.9" width="85.4" height="24.65" shape-rendering="crispEdges"/><rect fill="#242f38" x="85.4" y="147.9" width="12.2" height="24.65" shape-rendering="crispEdges"/><rect fill="#242f38" x="97.6" y="147.9" width="36.6" height="24.65" shape-rendering="crispEdges"/><rect fill="#242f38" x="134.2" y="147.9" width="24.4" height="24.65" shape-rendering="crispEdges"/><rect fill="#242f38" x="158.6" y="147.9" width="634.4" height="24.65" shape-rendering="crispEdges"/><rect fill="#242f38" x="793" y="147.9" width="24.4" height="24.65" shape-rendering="crispEdges"/><rect fill="#242f38" x="817.4" y="147.9" width="36.6" height="24.65" shape-rendering="crispEdges"/><rect fill="#242f38" x="854" y="147.9" width="12.2" height="24.65" shape-rendering="crispEdges"/><rect fill="#121212" x="866.2" y="147.9" width="85.4" height="24.65" shape-rendering="crispEdges"/><rect fill="#003054" x="951.6" y="147.9" width="24.4" height="24.65" shape-rendering="crispEdges"/><rect fill="#121212" x="0" y="172.3" width="85.4" height="24.65" shape-rendering="crispEdges"/><rect fill="#242f38" x="85.4" y="172.3" width="12.2" height="24.65" shape-rendering="crispEdges"/><rect fill="#242f38" x="97.6" y="172.3" width="36.6" height="24.65" shape-rendering="crispEdges"/><rect fill="#242f38" x="134.2" y="172.3" width="24.4" height="24.65" shape-rendering="crispEdges"/><rect fill="#242f38" x="158.6" y="172.3" width="622.2" height="24.65" shape-rendering="crispEdges"/><rect fill="#242f38" x="780.8" y="172.3" width="36.6" height="24.65" shape-rendering="crispEdges"/><rect fill="#242f38" x="817.4" y="172.3" width="36.6" height="24.65" shape-rendering="crispEdges"/><rect fill="#242f38" x="854" y="172.3" width="12.2" height="24.65" shape-rendering="crispEdges"/><rect fill="#121212" x="866.2" y="172.3" width="85.4" height="24.65" shape-rendering="crispEdges"/><rect fill="#003054" x="951.6" y="172.3" width="24.4" height="24.65" shape-rendering="crispEdges"/><rect fill="#121212" x="0" y="196.7" width="85.4" height="24.65" shape-rendering="crispEdges"/><rect fill="#242f38" x="85.4" y="196.7" width="12.2" height="24.65" shape-rendering="crispEdges"/><rect fill="#242f38" x="97.6" y="196.7" width="36.6" height="24.65" shape-rendering="crispEdges"/><rect fill="#242f38" x="134.2" y="196.7" width="122" height="24.65" shape-rendering="crispEdges"/><rect fill="#242f38" x="256.2" y="196.7" width="427" height="24.65" shape-rendering="crispEdges"/><rect fill="#242f38" x="683.2" y="196.7" width="134.2" height="24.65" shape-rendering="crispEdges"/><rect fill="#242f38" x="817.4" y="196.7" width="36.6" height="24.65" shape-rendering="crispEdges"/><rect fill="#242f38" x="854" y="196.7" width="12.2" height="24.65" shape-rendering="crispEdges"/><rect fill="#121212" x="866.2" y="196.7" width="85.4" height="24.65" shape-rendering="crispEdges"/><rect fill="#003054" x="951.6" y="196.7" width="24.4" height="24.65" shape-rendering="crispEdges"/><rect fill="#121212" x="0" y="221.1" width="85.4" height="24.65" shape-rendering="crispEdges"/><rect fill="#242f38" x="85.4" y="221.1" width="12.2" height="24.65" shape-rendering="crispEdges"/><rect fill="#242f38" x="97.6" y="221.1" width="36.6" height="24.65" shape-rendering="crispEdges"/><rect fill="#242f38" x="134.2" y="221.1" width="683.2" height="24.65" shape-rendering="crispEdges"/><rect fill="#242f38" x="817.4" y="221.1" width="36.6" height="24.65" shape-rendering="crispEdges"/><rect fill="#242f38" x="854" y="221.1" width="12.2" height="24.65" shape-rendering="crispEdges"/><rect fill="#121212" x="866.2" y="221.1" width="85.4" height="24.65" shape-rendering="crispEdges"/><rect fill="#003054" x="951.6" y="221.1" width="24.4" height="24.65" shape-rendering="crispEdges"/><rect fill="#121212" x="0" y="245.5" width="85.4" height="24.65" shape-rendering="crispEdges"/><rect fill="#242f38" x="85.4" y="245.5" width="12.2" height="24.65" shape-rendering="crispEdges"/><rect fill="#242f38" x="97.6" y="245.5" width="36.6" height="24.65" shape-rendering="crispEdges"/><rect fill="#242f38" x="134.2" y="245.5" width="683.2" height="24.65" shape-rendering="crispEdges"/><rect fill="#242f38" x="817.4" y="245.5" width="36.6" height="24.65" shape-rendering="crispEdges"/><rect fill="#242f38" x="854" y="245.5" width="12.2" height="24.65" shape-rendering="crispEdges"/><rect fill="#121212" x="866.2" y="245.5" width="85.4" height="24.65" shape-rendering="crispEdges"/><rect fill="#003054" x="951.6" y="245.5" width="24.4" height="24.65" shape-rendering="crispEdges"/><rect fill="#121212" x="0" y="269.9" width="85.4" height="24.65" shape-rendering="crispEdges"/><rect fill="#242f38" x="85.4" y="269.9" width="12.2" height="24.65" shape-rendering="crispEdges"/><rect fill="#242f38" x="97.6" y="269.9" width="36.6" height="24.65" shape-rendering="crispEdges"/><rect fill="#242f38" x="134.2" y="269.9" width="683.2" height="24.65" shape-rendering="crispEdges"/><rect fill="#242f38" x="817.4" y="269.9" width="36.6" height="24.65" shape-rendering="crispEdges"/><rect fill="#242f38" x="854" y="269.9" width="12.2" height="24.65" shape-rendering="crispEdges"/><rect fill="#121212" x="866.2" y="269.9" width="85.4" height="24.65" shape-rendering="crispEdges"/><rect fill="#003054" x="951.6" y="269.9" width="24.4" height="24.65" shape-rendering="crispEdges"/><rect fill="#121212" x="0" y="294.3" width="85.4" height="24.65" shape-rendering="crispEdges"/><rect fill="#242f38" x="85.4" y="294.3" width="12.2" height="24.65" shape-rendering="crispEdges"/><rect fill="#242f38" x="97.6" y="294.3" width="36.6" height="24.65" shape-rendering="crispEdges"/><rect fill="#55c076" x="134.2" y="294.3" width="683.2" height="24.65" shape-rendering="crispEdges"/><rect fill="#242f38" x="817.4" y="294.3" width="36.6" height="24.65" shape-rendering="crispEdges"/><rect fill="#242f38" x="854" y="294.3" width="12.2" height="24.65" shape-rendering="crispEdges"/><rect fill="#121212" x="866.2" y="294.3" width="85.4" height="24.65" shape-rendering="crispEdges"/><rect fill="#003054" x="951.6" y="294.3" width="24.4" height="24.65" shape-rendering="crispEdges"/><rect fill="#121212" x="0" y="318.7" width="85.4" height="24.65" shape-rendering="crispEdges"/><rect fill="#242f38" x="85.4" y="318.7" width="12.2" height="24.65" shape-rendering="crispEdges"/><rect fill="#242f38" x="97.6" y="318.7" width="36.6" height="24.65" shape-rendering="crispEdges"/><rect fill="#55c076" x="134.2" y="318.7" width="231.8" height="24.65" shape-rendering="crispEdges"/><rect fill="#0b180f" x="366" y="318.7" width="207.4" height="24.65" shape-rendering="crispEdges"/><rect fill="#55c076" x="573.4" y="318.7" width="244" height="24.65" shape-rendering="crispEdges"/><rect fill="#242f38" x="817.4" y="318.7" width="36.6" height="24.65" shape-rendering="crispEdges"/><rect fill="#242f38" x="854" y="318.7" width="12.2" height="24.65" shape-rendering="crispEdges"/><rect fill="#121212" x="866.2" y="318.7" width="85.4" height="24.65" shape-rendering="crispEdges"/><rect fill="#003054" x="951.6" y="318.7" width="24.4" height="24.65" shape-rendering="crispEdges"/><rect fill="#121212" x="0" y="343.1" width="85.4" height="24.65" shape-rendering="crispEdges"/><rect fill="#242f38" x="85.4" y="343.1" width="12.2" height="24.65" shape-rendering="crispEdges"/><rect fill="#242f38" x="97.6" y="343.1" width="36.6" height="24.65" shape-rendering="crispEdges"/><rect fill="#55c076" x="134.2" y="343.1" width="683.2" height="24.65" shape-rendering="crispEdges"/><rect fill="#242f38" x="817.4" y="343.1" width="36.6" height="24.65" shape-rendering="crispEdges"/><rect fill="#242f38" x="854" y="343.1" width="12.2" height="24.65" shape-rendering="crispEdges"/><rect fill="#121212" x="866.2" y="343.1" width="85.4" height="24.65" shape-rendering="crispEdges"/><rect fill="#000000" x="951.6" y="343.1" width="24.4" height="24.65" shape-rendering="crispEdges"/><rect fill="#121212" x="0" y="367.5" width="85.4" height="24.65" shape-rendering="crispEdges"/><rect fill="#242f38" x="85.4" y="367.5" width="12.2" height="24.65" shape-rendering="crispEdges"/><rect fill="#242f38" x="97.6" y="367.5" width="36.6" height="24.65" shape-rendering="crispEdges"/><rect fill="#242f38" x="134.2" y="367.5" width="683.2" height="24.65" shape-rendering="crispEdges"/><rect fill="#242f38" x="817.4" y="367.5" width="36.6" height="24.65" shape-rendering="crispEdges"/><rect fill="#242f38" x="854" y="367.5" width="12.2" height="24.65" shape-rendering="crispEdges"/><rect fill="#121212" x="866.2" y="367.5" width="85.4" height="24.65" shape-rendering="crispEdges"/><rect fill="#000000" x="951.6" y="367.5" width="24.4" height="24.65" shape-rendering="crispEdges"/><rect fill="#121212" x="0" y="391.9" width="85.4" height="24.65" shape-rendering="crispEdges"/><rect fill="#242f38" x="85.4" y="391.9" width="12.2" height="24.65" shape-rendering="crispEdges"/><rect fill="#242f38" x="97.6" y="391.9" width="36.6" height="24.65" shape-rendering="crispEdges"/><rect fill="#0178d4" x="134.2" y="391.9" width="683.2" height="24.65" shape-rendering="crispEdges"/><rect fill="#242f38" x="817.4" y="391.9" width="36.6" height="24.65" shape-rendering="crispEdges"/><rect fill="#242f38" x="854" y="391.9" width="12.2" height="24.65" shape-rendering="crispEdges"/><rect fill="#121212" x="866.2" y="391.9" width="85.4" height="24.65" shape-rendering="crispEdges"/><rect fill="#000000" x="951.6" y="391.9" width="24.4" height="24.65" shape-rendering="crispEdges"/><rect fill="#121212" x="0" y="416.3" width="85.4" height="24.65" shape-rendering="crispEdges"/><rect fill="#242f38" x="85.4" y="416.3" width="12.2" height="24.65" shape-rendering="crispEdges"/><rect fill="#242f38" x="97.6" y="416.3" width="36.6" height="24.65" shape-rendering="crispEdges"/><rect fill="#0178d4" x="134.2" y="416.3" width="268.4" height="24.65" shape-rendering="crispEdges"/><rect fill="#0178d4" x="402.6" y="416.3" width="134.2" height="24.65" shape-rendering="crispEdges"/><rect fill="#0178d4" x="536.8" y="416.3" width="280.6" height="24.65" shape-rendering="crispEdges"/><rect fill="#242f38" x="817.4" y="416.3" width="36.6" height="24.65" shape-rendering="crispEdges"/><rect fill="#242f38" x="854" y="416.3" width="12.2" height="24.65" shape-rendering="crispEdges"/><rect fill="#121212" x="866.2" y="416.3" width="85.4" height="24.65" shape-rendering="crispEdges"/><rect fill="#000000" x="951.6" y="416.3" width="24.4" height="24.65" shape-rendering="crispEdges"/><rect fill="#121212" x="0" y="440.7" width="85.4" height="24.65" shape-rendering="crispEdges"/><rect fill="#242f38" x="85.4" y="440.7" width="12.2" height="24.65" shape-rendering="crispEdges"/><rect fill="#242f38" x="97.6" y="440.7" width="36.6" height="24.65" shape-rendering="crispEdges"/><rect fill="#0178d4" x="134.2" y="440.7" width="683.2" height="24.65" shape-rendering="crispEdges"/><rect fill="#242f38" x="817.4" y="440.7" width="36.6" height="24.65" shape-rendering="crispEdges"/><rect fill="#242f38" x="854" y="440.7" width="12.2" height="24.65" shape-rendering="crispEdges"/><rect fill="#121212" x="866.2" y="440.7" width="85.4" height="24.65" shape-rendering="crispEdges"/><rect fill="#000000" x="951.6" y="440.7" width="24.4" height="24.65" shape-rendering="crispEdges"/><rect fill="#121212" x="0" y="465.1" width="85.4" height="24.65" shape-rendering="crispEdges"/><rect fill="#242f38" x="85.4" y="465.1" width="12.2" height="24.65" shape-rendering="crispEdges"/><rect fill="#242f38" x="97.6" y="465.1" width="36.6" height="24.65" shape-rendering="crispEdges"/><rect fill="#242f38" x="134.2" y="465.1" width="683.2" height="24.65" shape-rendering="crispEdges"/><rect fill="#242f38" x="817.4" y="465.1" width="36.6" height="24.65" shape-rendering="crispEdges"/><rect fill="#242f38" x="854" y="465.1" width="12.2" height="24.65" shape-rendering="crispEdges"/><rect fill="#121212" x="866.2" y="465.1" width="85.4" height="24.65" shape-rendering="crispEdges"/><rect fill="#000000" x="951.6" y="465.1" width="24.4" height="24.65" shape-rendering="crispEdges"/><rect fill="#121212" x="0" y="489.5" width="85.4" height="24.65" shape-rendering="crispEdges"/><rect fill="#242f38" x="85.4" y="489.5" width="12.2" height="24.65" shape-rendering="crispEdges"/><rect fill="#242f38" x="97.6" y="489.5" width="36.6" height="24.65" shape-rendering="crispEdges"/><rect fill="#242f38" x="134.2" y="489.5" width="683.2" height="24.65" shape-rendering="crispEdges"/><rect fill="#242f38" x="817.4" y="489.5" width="36.6" height="24.65" shape-rendering="crispEdges"/><rect fill="#242f38" x="854" y="489.5" width="12.2" height="24.65" shape-rendering="crispEdges"/><rect fill="#121212" x="866.2" y="489.5" width="85.4" height="24.65" shape-rendering="crispEdges"/><rect fill="#000000" x="951.6" y="489.5" width="24.4" height="24.65" shape-rendering="crispEdges"/><rect fill="#121212" x="0" y="513.9" width="85.4" height="24.65" shape-rendering="crispEdges"/><rect fill="#242f38" x="85.4" y="513.9" width="12.2" height="24.65" shape-rendering="crispEdges"/><rect fill="#242f38" x="97.6" y="513.9" width="36.6" height="24.65" shape-rendering="crispEdges"/><rect fill="#242f38" x="134.2" y="513.9" width="683.2" height="24.65" shape-rendering="crispEdges"/><rect fill="#242f38" x="817.4" y="513.9" width="36.6" height="24.65" shape-rendering="crispEdges"/><rect fill="#242f38" x="854" y="513.9" width="12.2" height="24.65" shape-rendering="crispEdges"/><rect fill="#121212" x="866.2" y="513.9" width="85.4" height="24.65" shape-rendering="crispEdges"/><rect fill="#000000" x="951.6" y="513.9" width="24.4" height="24.65" shape-rendering="crispEdges"/><rect fill="#121212" x="0" y="538.3" width="85.4" height="24.65" shape-rendering="crispEdges"/><rect fill="#242f38" x="85.4" y="538.3" width="12.2" height="24.65" shape-rendering="crispEdges"/><rect fill="#242f38" x="97.6" y="538.3" width="36.6" height="24.65" shape-rendering="crispEdges"/><rect fill="#1e1e1e" x="134.2" y="538.3" width="683.2" height="24.65" shape-rendering="crispEdges"/><rect fill="#242f38" x="817.4" y="538.3" width="36.6" height="24.65" shape-rendering="crispEdges"/><rect fill="#242f38" x="854" y="538.3" width="12.2" height="24.65" shape-rendering="crispEdges"/><rect fill="#121212" x="866.2" y="538.3" width="85.4" height="24.65" shape-rendering="crispEdges"/><rect fill="#000000" x="951.6" y="538.3" width="24.4" height="24.65" shape-rendering="crispEdges"/><rect fill="#242f38" x="0" y="562.7" width="36.6" height="24.65" shape-rendering="crispEdges"/><rect fill="#242f38" x="36.6" y="562.7" width="48.8" height="24.65" shape-rendering="crispEdges"/><rect fill="#242f38" x="85.4" y="562.7" width="48.8" height="24.65" shape-rendering="crispEdges"/><rect fill="#242f38" x="134.2" y="562.7" width="48.8" height="24.65" shape-rendering="crispEdges"/><rect fill="#242f38" x="183" y="562.7" width="97.6" height="24.65" shape-rendering="crispEdges"/><rect fill="#242f38" x="280.6" y="562.7" width="524.6" height="24.65" shape-rendering="crispEdges"/><rect fill="#242f38" x="805.2" y="562.7" width="12.2" height="24.65" shape-rendering="crispEdges"/><rect fill="#242f38" x="817.4" y="562.7" width="24.4" height="24.65" shape-rendering="crispEdges"/><rect fill="#242f38" x="841.8" y="562.7" width="24.4" height="24.65" shape-rendering="crispEdges"/><rect fill="#242f38" x="866.2" y="562.7" width="73.2" height="24.65" shape-rendering="crispEdges"/><rect fill="#242f38" x="939.4" y="562.7" width="12.2" height="24.65" shape-rendering="crispEdges"/><rect fill="#000000" x="951.6" y="562.7" width="24.4" height="24.65" shape-rendering="crispEdges"/>
    <g class="terminal-4277881096-matrix">
    <text class="terminal-4277881096-r2" x="85.4" y="20" textLength="12.2" clip-path="url(#terminal-4277881096-line-0)">╔</text><text class="terminal-4277881096-r2" x="97.6" y="20" textLength="756.4" clip-path="url(#terminal-4277881096-line-0)">══════════════════════════════════════════════════════════════</text><text class="terminal-4277881096-r2" x="854" y="20" textLength="12.2" clip-path="url(#terminal-4277881096-line-0)">╗</text><text class="terminal-4277881096-r1" x="976" y="20" textLength="12.2" clip-path="url(#terminal-4277881096-line-0)">
</text><text class="terminal-4277881096-r2" x="85.4" y="44.4" textLength="12.2" clip-path="url(#terminal-4277881096-line-1)">║</text><text class="terminal-4277881096-r2" x="854" y="44.4" textLength="12.2" clip-path="url(#terminal-4277881096-line-1)">║</text><text class="terminal-4277881096-r1" x="976" y="44.4" textLength="12.2" clip-path="url(#terminal-4277881096-line-1)">
</text><text class="terminal-4277881096-r2" x="85.4" y="68.8" textLength="12.2" clip-path="url(#terminal-4277881096-line-2)">║</text><text class="terminal-4277881096-r2" x="158.6" y="68.8" textLength="634.4" clip-path="url(#terminal-4277881096-line-2)">&#160;███████╗██╗&#160;&#160;&#160;██╗██████╗&#160;&#160;██████╗&#160;██╗&#160;&#160;██╗██╗&#160;&#160;&#160;██╗</text><text class="terminal-4277881096-r2" x="854" y="68.8" textLength="12.2" clip-path="url(#terminal-4277881096-line-2)">║</text><text class="terminal-4277881096-r1" x="976" y="68.8" textLength="12.2" clip-path="url(#terminal-4277881096-line-2)">
</text><text class="terminal-4277881096-r2" x="85.4" y="93.2" textLength="12.2" clip-path="url(#terminal-4277881096-line-3)">║</text><text class="terminal-4277881096-r2" x="158.6" y="93.2" textLength="634.4" clip-path="url(#terminal-4277881096-line-3)">&#160;██╔════╝██║&#160;&#160;&#160;██║██╔══██╗██╔═══██╗██║&#160;██╔╝██║&#160;&#160;&#160;██║</text><text class="terminal-4277881096-r2" x="854" y="93.2" textLength="12.2" clip-path="url(#terminal-4277881096-line-3)">║</text><text class="terminal-4277881096-r1" x="976" y="93.2" textLength="12.2" clip-path="url(#terminal-4277881096-line-3)">
</text><text class="terminal-4277881096-r2" x="85.4" y="117.6" textLength="12.2" clip-path="url(#terminal-4277881096-line-4)">║</text><text class="terminal-4277881096-r2" x="158.6" y="117.6" textLength="634.4" clip-path="url(#terminal-4277881096-line-4)">&#160;███████╗██║&#160;&#160;&#160;██║██║&#160;&#160;██║██║&#160;&#160;&#160;██║█████╔╝&#160;██║&#160;&#160;&#160;██║</text><text class="terminal-4277881096-r2" x="854" y="117.6" textLength="12.2" clip-path="url(#terminal-4277881096-line-4)">║</text><text class="terminal-4277881096-r1" x="976" y="117.6" textLength="12.2" clip-path="url(#terminal-4277881096-line-4)">
</text><text class="terminal-4277881096-r2" x="85.4" y="142" textLength="12.2" clip-path="url(#terminal-4277881096-line-5)">║</text><text class="terminal-4277881096-r2" x="158.6" y="142" textLength="634.4" clip-path="url(#terminal-4277881096-line-5)">&#160;╚════██║██║&#160;&#160;&#160;██║██║&#160;&#160;██║██║&#160;&#160;&#160;██║██╔═██╗&#160;██║&#160;&#160;&#160;██║</text><text class="terminal-4277881096-r2" x="854" y="142" textLength="12.2" clip-path="url(#terminal-4277881096-line-5)">║</text><text class="terminal-4277881096-r1" x="976" y="142" textLength="12.2" clip-path="url(#terminal-4277881096-line-5)">
</text><text class="terminal-4277881096-r2" x="85.4" y="166.4" textLength="12.2" clip-path="url(#terminal-4277881096-line-6)">║</text><text class="terminal-4277881096-r2" x="158.6" y="166.4" textLength="634.4" clip-path="url(#terminal-4277881096-line-6)">&#160;███████║╚██████╔╝██████╔╝╚██████╔╝██║&#160;&#160;██╗╚██████╔╝</text><text class="terminal-4277881096-r2" x="854" y="166.4" textLength="12.2" clip-path="url(#terminal-4277881096-line-6)">║</text><text class="terminal-4277881096-r1" x="976" y="166.4" textLength="12.2" clip-path="url(#terminal-4277881096-line-6)">
</text><text class="terminal-4277881096-r2" x="85.4" y="190.8" textLength="12.2" clip-path="url(#terminal-4277881096-line-7)">║</text><text class="terminal-4277881096-r2" x="158.6" y="190.8" textLength="622.2" clip-path="url(#terminal-4277881096-line-7)">&#160;╚══════╝&#160;╚═════╝&#160;╚═════╝&#160;&#160;╚═════╝&#160;╚═╝&#160;&#160;╚═╝&#160;╚═════╝</text><text class="terminal-4277881096-r2" x="854" y="190.8" textLength="12.2" clip-path="url(#terminal-4277881096-line-7)">║</text><text class="terminal-4277881096-r1" x="976" y="190.8" textLength="12.2" clip-path="url(#terminal-4277881096-line-7)">
</text><text class="terminal-4277881096-r2" x="85.4" y="215.2" textLength="12.2" clip-path="url(#terminal-4277881096-line-8)">║</text><text class="terminal-4277881096-r4" x="256.2" y="215.2" textLength="427" clip-path="url(#terminal-4277881096-line-8)">ESIEE-IT&#160;&#160;·&#160;&#160;M1&#160;ILMSI&#160;&#160;·&#160;&#160;2025-2026</text><text class="terminal-4277881096-r2" x="854" y="215.2" textLength="12.2" clip-path="url(#terminal-4277881096-line-8)">║</text><text class="terminal-4277881096-r1" x="976" y="215.2" textLength="12.2" clip-path="url(#terminal-4277881096-line-8)">
</text><text class="terminal-4277881096-r2" x="85.4" y="239.6" textLength="12.2" clip-path="url(#terminal-4277881096-line-9)">║</text><text class="terminal-4277881096-r2" x="854" y="239.6" textLength="12.2" clip-path="url(#terminal-4277881096-line-9)">║</text><text class="terminal-4277881096-r1" x="976" y="239.6" textLength="12.2" clip-path="url(#terminal-4277881096-line-9)">
</text><text class="terminal-4277881096-r2" x="85.4" y="264" textLength="12.2" clip-path="url(#terminal-4277881096-line-10)">║</text><text class="terminal-4277881096-r5" x="134.2" y="264" textLength="683.2" clip-path="url(#terminal-4277881096-line-10)">────────────────────────────────────────────────────────</text><text class="terminal-4277881096-r2" x="854" y="264" textLength="12.2" clip-path="url(#terminal-4277881096-line-10)">║</text><text class="terminal-4277881096-r1" x="976" y="264" textLength="12.2" clip-path="url(#terminal-4277881096-line-10)">
</text><text class="terminal-4277881096-r2" x="85.4" y="288.4" textLength="12.2" clip-path="url(#terminal-4277881096-line-11)">║</text><text class="terminal-4277881096-r2" x="854" y="288.4" textLength="12.2" clip-path="url(#terminal-4277881096-line-11)">║</text><text class="terminal-4277881096-r1" x="976" y="288.4" textLength="12.2" clip-path="url(#terminal-4277881096-line-11)">
</text><text class="terminal-4277881096-r2" x="85.4" y="312.8" textLength="12.2" clip-path="url(#terminal-4277881096-line-12)">║</text><text class="terminal-4277881096-r6" x="134.2" y="312.8" textLength="683.2" clip-path="url(#terminal-4277881096-line-12)">▔▔▔▔▔▔▔▔▔▔▔▔▔▔▔▔▔▔▔▔▔▔▔▔▔▔▔▔▔▔▔▔▔▔▔▔▔▔▔▔▔▔▔▔▔▔▔▔▔▔▔▔▔▔▔▔</text><text class="terminal-4277881096-r2" x="854" y="312.8" textLength="12.2" clip-path="url(#terminal-4277881096-line-12)">║</text><text class="terminal-4277881096-r1" x="976" y="312.8" textLength="12.2" clip-path="url(#terminal-4277881096-line-12)">
</text><text class="terminal-4277881096-r2" x="85.4" y="337.2" textLength="12.2" clip-path="url(#terminal-4277881096-line-13)">║</text><text class="terminal-4277881096-r7" x="366" y="337.2" textLength="207.4" clip-path="url(#terminal-4277881096-line-13)">&#160;Nouvelle&#160;Partie&#160;</text><text class="terminal-4277881096-r2" x="854" y="337.2" textLength="12.2" clip-path="url(#terminal-4277881096-line-13)">║</text><text class="terminal-4277881096-r8" x="951.6" y="337.2" textLength="24.4" clip-path="url(#terminal-4277881096-line-13)">▄▄</text><text class="terminal-4277881096-r1" x="976" y="337.2" textLength="12.2" clip-path="url(#terminal-4277881096-line-13)">
</text><text class="terminal-4277881096-r2" x="85.4" y="361.6" textLength="12.2" clip-path="url(#terminal-4277881096-line-14)">║</text><text class="terminal-4277881096-r9" x="134.2" y="361.6" textLength="683.2" clip-path="url(#terminal-4277881096-line-14)">▁▁▁▁▁▁▁▁▁▁▁▁▁▁▁▁▁▁▁▁▁▁▁▁▁▁▁▁▁▁▁▁▁▁▁▁▁▁▁▁▁▁▁▁▁▁▁▁▁▁▁▁▁▁▁▁</text><text class="terminal-4277881096-r2" x="854" y="361.6" textLength="12.2" clip-path="url(#terminal-4277881096-line-14)">║</text><text class="terminal-4277881096-r1" x="976" y="361.6" textLength="12.2" clip-path="url(#terminal-4277881096-line-14)">
</text><text class="terminal-4277881096-r2" x="85.4" y="386" textLength="12.2" clip-path="url(#terminal-4277881096-line-15)">║</text><text class="terminal-4277881096-r2" x="854" y="386" textLength="12.2" clip-path="url(#terminal-4277881096-line-15)">║</text><text class="terminal-4277881096-r1" x="976" y="386" textLength="12.2" clip-path="url(#terminal-4277881096-line-15)">
</text><text class="terminal-4277881096-r2" x="85.4" y="410.4" textLength="12.2" clip-path="url(#terminal-4277881096-line-16)">║</text><text class="terminal-4277881096-r11" x="134.2" y="410.4" textLength="683.2" clip-path="url(#terminal-4277881096-line-16)">▔▔▔▔▔▔▔▔▔▔▔▔▔▔▔▔▔▔▔▔▔▔▔▔▔▔▔▔▔▔▔▔▔▔▔▔▔▔▔▔▔▔▔▔▔▔▔▔▔▔▔▔▔▔▔▔</text><text class="terminal-4277881096-r2" x="854" y="410.4" textLength="12.2" clip-path="url(#terminal-4277881096-line-16)">║</text><text class="terminal-4277881096-r1" x="976" y="410.4" textLength="12.2" clip-path="url(#terminal-4277881096-line-16)">
</text><text class="terminal-4277881096-r2" x="85.4" y="434.8" textLength="12.2" clip-path="url(#terminal-4277881096-line-17)">║</text><text class="terminal-4277881096-r12" x="402.6" y="434.8" textLength="134.2" clip-path="url(#terminal-4277881096-line-17)">&#160;Reprendre&#160;</text><text class="terminal-4277881096-r2" x="854" y="434.8" textLength="12.2" clip-path="url(#terminal-4277881096-line-17)">║</text><text class="terminal-4277881096-r1" x="976" y="434.8" textLength="12.2" clip-path="url(#terminal-4277881096-line-17)">
</text><text class="terminal-4277881096-r2" x="85.4" y="459.2" textLength="12.2" clip-path="url(#terminal-4277881096-line-18)">║</text><text class="terminal-4277881096-r13" x="134.2" y="459.2" textLength="683.2" clip-path="url(#terminal-4277881096-line-18)">▁▁▁▁▁▁▁▁▁▁▁▁▁▁▁▁▁▁▁▁▁▁▁▁▁▁▁▁▁▁▁▁▁▁▁▁▁▁▁▁▁▁▁▁▁▁▁▁▁▁▁▁▁▁▁▁</text><text class="terminal-4277881096-r2" x="854" y="459.2" textLength="12.2" clip-path="url(#terminal-4277881096-line-18)">║</text><text class="terminal-4277881096-r1" x="976" y="459.2" textLength="12.2" clip-path="url(#terminal-4277881096-line-18)">
</text><text class="terminal-4277881096-r2" x="85.4" y="483.6" textLength="12.2" clip-path="url(#terminal-4277881096-line-19)">║</text><text class="terminal-4277881096-r2" x="854" y="483.6" textLength="12.2" clip-path="url(#terminal-4277881096-line-19)">║</text><text class="terminal-4277881096-r1" x="976" y="483.6" textLength="12.2" clip-path="url(#terminal-4277881096-line-19)">
</text><text class="terminal-4277881096-r2" x="85.4" y="508" textLength="12.2" clip-path="url(#terminal-4277881096-line-20)">║</text><text class="terminal-4277881096-r5" x="134.2" y="508" textLength="683.2" clip-path="url(#terminal-4277881096-line-20)">────────────────────────────────────────────────────────</text><text class="terminal-4277881096-r2" x="854" y="508" textLength="12.2" clip-path="url(#terminal-4277881096-line-20)">║</text><text class="terminal-4277881096-r1" x="976" y="508" textLength="12.2" clip-path="url(#terminal-4277881096-line-20)">
</text><text class="terminal-4277881096-r2" x="85.4" y="532.4" textLength="12.2" clip-path="url(#terminal-4277881096-line-21)">║</text><text class="terminal-4277881096-r2" x="854" y="532.4" textLength="12.2" clip-path="url(#terminal-4277881096-line-21)">║</text><text class="terminal-4277881096-r1" x="976" y="532.4" textLength="12.2" clip-path="url(#terminal-4277881096-line-21)">
</text><text class="terminal-4277881096-r2" x="85.4" y="556.8" textLength="12.2" clip-path="url(#terminal-4277881096-line-22)">║</text><text class="terminal-4277881096-r14" x="134.2" y="556.8" textLength="683.2" clip-path="url(#terminal-4277881096-line-22)">▔▔▔▔▔▔▔▔▔▔▔▔▔▔▔▔▔▔▔▔▔▔▔▔▔▔▔▔▔▔▔▔▔▔▔▔▔▔▔▔▔▔▔▔▔▔▔▔▔▔▔▔▔▔▔▔</text><text class="terminal-4277881096-r2" x="854" y="556.8" textLength="12.2" clip-path="url(#terminal-4277881096-line-22)">║</text><text class="terminal-4277881096-r1" x="976" y="556.8" textLength="12.2" clip-path="url(#terminal-4277881096-line-22)">
</text><text class="terminal-4277881096-r15" x="0" y="581.2" textLength="36.6" clip-path="url(#terminal-4277881096-line-23)">&#160;q&#160;</text><text class="terminal-4277881096-r10" x="36.6" y="581.2" textLength="48.8" clip-path="url(#terminal-4277881096-line-23)">Quit</text><text class="terminal-4277881096-r10" x="85.4" y="581.2" textLength="48.8" clip-path="url(#terminal-4277881096-line-23)">ter&#160;</text><text class="terminal-4277881096-r15" x="134.2" y="581.2" textLength="48.8" clip-path="url(#terminal-4277881096-line-23)">&#160;^q&#160;</text><text class="terminal-4277881096-r10" x="183" y="581.2" textLength="97.6" clip-path="url(#terminal-4277881096-line-23)">Quitter&#160;</text><text class="terminal-4277881096-r16" x="805.2" y="581.2" textLength="12.2" clip-path="url(#terminal-4277881096-line-23)">▏</text><text class="terminal-4277881096-r15" x="817.4" y="581.2" textLength="24.4" clip-path="url(#terminal-4277881096-line-23)">^p</text><text class="terminal-4277881096-r10" x="841.8" y="581.2" textLength="24.4" clip-path="url(#terminal-4277881096-line-23)">&#160;p</text><text class="terminal-4277881096-r10" x="866.2" y="581.2" textLength="73.2" clip-path="url(#terminal-4277881096-line-23)">alette</text>
    </g>
    </g>
</svg>
